<svg xmlns="http://www.w3.org/2000/svg" viewBox="0 0 64 64" id="Heart">
  <path fill="#f88379" fill-rule="evenodd" d="M6.089 30.818a8.188 8.188 0 0 0 2.995 11.18l1.414.82 14.135 8.196 8.143-14.165.814-1.417a8.188 8.188 0 0 0-2.995-11.18 8.115 8.115 0 0 0-11.14 2.984l-.814 1.416-1.413-.82a8.115 8.115 0 0 0-11.14 2.986z" class="colorff143a svgShape"></path>
  <path fill="none" stroke="#ffffff" stroke-linecap="round" stroke-linejoin="round" stroke-width="2.001" d="M9.254 38.853a5.572 5.572 0 0 1-1.442-5.382 5.572 5.572 0 0 1 3.94-3.94" opacity=".4" class="colorStrokeffffff svgStroke"></path>
  <path fill="#d31100" fill-rule="evenodd" d="M11.036 27.001a8.112 8.112 0 0 0-4.947 3.815c-.234.407-.42.83-.579 1.255.01-.016.009-.019.015-.028a7.407 7.407 0 0 1 10.167-2.724L17.6 30.43l.743-1.294c.095-.166.2-.321.307-.477l-1.422-.83a8.112 8.112 0 0 0-6.192-.83zm13.365-3.58a8.093 8.093 0 0 0-4.248 2.802 7.4 7.4 0 0 1 7.739-.173 7.473 7.473 0 0 1 2.734 10.205l-.743 1.293-7.118 12.383 1.868 1.083 8.143-14.166.813-1.417a8.19 8.19 0 0 0-2.996-11.18 8.112 8.112 0 0 0-6.192-.83z" class="colord30045 svgShape"></path>
  <path fill="#a40d00" fill-rule="evenodd" d="M25.943 23.164a8.11 8.11 0 0 0-2.956.783c.17 1.503.64 2.998 1.44 4.389l.937 1.624 5.692 9.878 1.719-2.991.814-1.414a8.189 8.189 0 0 0-2.995-11.18 8.125 8.125 0 0 0-4.651-1.09z" class="colora40028 svgShape"></path>
  <path fill="#760900" fill-rule="evenodd" d="M25.943 23.164a8.053 8.053 0 0 0-1.515.25 8.18 8.18 0 0 0-1.363.501c-.025.02-.048.03-.074.043.044.388.107.776.192 1.162a7.383 7.383 0 0 1 4.71.928 7.474 7.474 0 0 1 2.732 10.206l-.744 1.292-.074.125 1.249 2.165 1.719-2.991.814-1.414a8.187 8.187 0 0 0 1.077-4.662c-.006-.088-.034-.17-.043-.259a8.205 8.205 0 0 0-.22-1.288 8.188 8.188 0 0 0-1.374-2.819c-.153-.203-.35-.374-.524-.563-.19-.206-.356-.427-.568-.615-.17-.15-.379-.269-.564-.407-.256-.193-.495-.4-.779-.564-.04-.022-.082-.036-.121-.058a8.225 8.225 0 0 0-1.234-.556c-.143-.052-.29-.09-.434-.132a8.05 8.05 0 0 0-1.022-.235c-.144-.024-.286-.052-.43-.066a7.899 7.899 0 0 0-1.41-.038z" class="color760032 svgShape"></path>
  <path fill="#f88379" fill-rule="evenodd" d="M29.628 14.492a9.397 9.397 0 0 0-3.438 12.83l.935 1.626 9.345 16.256L52.69 35.8l1.623-.94a9.397 9.397 0 0 0 3.438-12.832 9.313 9.313 0 0 0-12.783-3.425l-1.622.94-.935-1.625a9.313 9.313 0 0 0-12.783-3.425z" class="colorff143a svgShape"></path>
  <path fill="none" stroke="#ffffff" stroke-linecap="round" stroke-linejoin="round" stroke-width="1.999" d="M28.164 24.294a6.394 6.394 0 0 1 1.654-6.176 6.394 6.394 0 0 1 6.176-1.655" opacity=".4" class="colorStrokeffffff svgStroke"></path>
  <path fill="#d31100" fill-rule="evenodd" d="M36.735 13.538a9.31 9.31 0 0 0-7.106.953c-.466.27-.893.583-1.295.915.019-.01.02-.014.03-.02a8.5 8.5 0 0 1 11.669 3.126l1.257 2.201 1.481-.86c.19-.11.384-.203.579-.298l-.937-1.64a9.31 9.31 0 0 0-5.677-4.377zm15.338 4.11a9.288 9.288 0 0 0-5.83.348 8.492 8.492 0 0 1 7.79 4.268 8.576 8.576 0 0 1-3.138 11.71l-1.48.86-14.18 8.223 1.235 2.147 16.221-9.406 1.621-.941a9.398 9.398 0 0 0 3.438-12.831 9.31 9.31 0 0 0-5.677-4.378z" class="colord30045 svgShape"></path>
</svg>
